<svg width="73" height="26" viewBox="0 0 73 26" fill="none" xmlns="http://www.w3.org/2000/svg">
<path d="M26.2949 15.3408C26.2949 16.2204 25.9759 16.9062 25.3379 17.3984C24.6999 17.8906 23.834 18.1367 22.7402 18.1367C21.5553 18.1367 20.6439 17.984 20.0059 17.6787V16.5576C20.416 16.7308 20.8626 16.8675 21.3457 16.9678C21.8288 17.068 22.3073 17.1182 22.7812 17.1182C23.556 17.1182 24.1393 16.9723 24.5312 16.6807C24.9232 16.3844 25.1191 15.9743 25.1191 15.4502C25.1191 15.1038 25.0485 14.8213 24.9072 14.6025C24.7705 14.3792 24.5381 14.1742 24.21 13.9873C23.8864 13.8005 23.3919 13.5885 22.7266 13.3516C21.7969 13.0189 21.1315 12.6247 20.7305 12.1689C20.334 11.7132 20.1357 11.1185 20.1357 10.3848C20.1357 9.61458 20.4251 9.00163 21.0039 8.5459C21.5827 8.09017 22.3483 7.8623 23.3008 7.8623C24.2943 7.8623 25.208 8.0446 26.042 8.40918L25.6797 9.4209C24.8548 9.07454 24.0527 8.90137 23.2734 8.90137C22.6582 8.90137 22.1774 9.03353 21.8311 9.29785C21.4847 9.56217 21.3115 9.92904 21.3115 10.3984C21.3115 10.7448 21.3753 11.0296 21.5029 11.2529C21.6305 11.4717 21.8447 11.6745 22.1455 11.8613C22.4508 12.0436 22.9157 12.2464 23.54 12.4697C24.5882 12.8434 25.3083 13.2445 25.7002 13.6729C26.0967 14.1012 26.2949 14.6572 26.2949 15.3408ZM31.333 18.1367C30.2256 18.1367 29.3506 17.7995 28.708 17.125C28.07 16.4505 27.751 15.514 27.751 14.3154C27.751 13.1077 28.0472 12.1484 28.6396 11.4375C29.2367 10.7266 30.0365 10.3711 31.0391 10.3711C31.9779 10.3711 32.7207 10.681 33.2676 11.3008C33.8145 11.916 34.0879 12.7295 34.0879 13.7412V14.459H28.9268C28.9495 15.3385 29.1706 16.0062 29.5898 16.4619C30.0137 16.9176 30.6084 17.1455 31.374 17.1455C32.1807 17.1455 32.9782 16.9769 33.7666 16.6396V17.6514C33.3656 17.8245 32.985 17.9476 32.625 18.0205C32.2695 18.098 31.8389 18.1367 31.333 18.1367ZM31.0254 11.3213C30.4238 11.3213 29.943 11.5173 29.583 11.9092C29.2275 12.3011 29.0179 12.8434 28.9541 13.5361H32.8711C32.8711 12.8206 32.7116 12.2738 32.3926 11.8955C32.0736 11.5127 31.6178 11.3213 31.0254 11.3213ZM40.6367 18L40.4111 16.9336H40.3564C39.9827 17.403 39.609 17.722 39.2354 17.8906C38.8662 18.0547 38.4036 18.1367 37.8477 18.1367C37.1048 18.1367 36.5215 17.9453 36.0977 17.5625C35.6784 17.1797 35.4688 16.6351 35.4688 15.9287C35.4688 14.4157 36.6787 13.6227 39.0986 13.5498L40.3701 13.5088V13.0439C40.3701 12.4561 40.2425 12.0231 39.9873 11.7451C39.7367 11.4626 39.3333 11.3213 38.7773 11.3213C38.153 11.3213 37.4466 11.5127 36.6582 11.8955L36.3096 11.0273C36.6787 10.8268 37.082 10.6696 37.5195 10.5557C37.9616 10.4417 38.4036 10.3848 38.8457 10.3848C39.7389 10.3848 40.3997 10.583 40.8281 10.9795C41.2611 11.376 41.4775 12.0117 41.4775 12.8867V18H40.6367ZM38.0732 17.2002C38.7796 17.2002 39.3333 17.0065 39.7344 16.6191C40.14 16.2318 40.3428 15.6895 40.3428 14.9922V14.3154L39.208 14.3633C38.3057 14.3952 37.654 14.5365 37.2529 14.7871C36.8564 15.0332 36.6582 15.4183 36.6582 15.9424C36.6582 16.3525 36.7812 16.6647 37.0273 16.8789C37.278 17.0931 37.6266 17.2002 38.0732 17.2002ZM47.2402 10.3711C47.5729 10.3711 47.8714 10.3984 48.1357 10.4531L47.9785 11.5059C47.6686 11.4375 47.3952 11.4033 47.1582 11.4033C46.5521 11.4033 46.0326 11.6494 45.5996 12.1416C45.1712 12.6338 44.957 13.2467 44.957 13.9805V18H43.8223V10.5078H44.7588L44.8887 11.8955H44.9434C45.2214 11.4079 45.5563 11.0319 45.9482 10.7676C46.3402 10.5033 46.7708 10.3711 47.2402 10.3711ZM52.5312 18.1367C51.4466 18.1367 50.6058 17.804 50.0088 17.1387C49.4163 16.4688 49.1201 15.5231 49.1201 14.3018C49.1201 13.0485 49.4209 12.0801 50.0225 11.3965C50.6286 10.7129 51.4899 10.3711 52.6064 10.3711C52.9665 10.3711 53.3265 10.4098 53.6865 10.4873C54.0465 10.5648 54.3291 10.6559 54.5342 10.7607L54.1855 11.7246C53.9349 11.6243 53.6615 11.5423 53.3652 11.4785C53.069 11.4102 52.807 11.376 52.5791 11.376C51.057 11.376 50.2959 12.3467 50.2959 14.2881C50.2959 15.2087 50.4805 15.915 50.8496 16.4072C51.2233 16.8994 51.7747 17.1455 52.5039 17.1455C53.1283 17.1455 53.7686 17.0111 54.4248 16.7422V17.7471C53.9235 18.0068 53.2923 18.1367 52.5312 18.1367ZM61.3359 18V13.1533C61.3359 12.5426 61.1969 12.0869 60.9189 11.7861C60.641 11.4854 60.2057 11.335 59.6133 11.335C58.8249 11.335 58.2484 11.5492 57.8838 11.9775C57.5238 12.4059 57.3438 13.1077 57.3438 14.083V18H56.209V7.36328H57.3438V10.583C57.3438 10.9704 57.3255 11.2917 57.2891 11.5469H57.3574C57.5807 11.1868 57.8975 10.9043 58.3076 10.6992C58.7223 10.4896 59.194 10.3848 59.7227 10.3848C60.6387 10.3848 61.3245 10.6035 61.7803 11.041C62.2406 11.474 62.4707 12.1644 62.4707 13.1123V18H61.3359Z" fill="white"/>
<path d="M5.31088 17.2917C7.69172 17.2917 9.62176 15.3516 9.62176 12.9583C9.62176 10.5651 7.69172 8.625 5.31088 8.625C2.93005 8.625 1 10.5651 1 12.9583C1 15.3516 2.93005 17.2917 5.31088 17.2917Z" stroke="white" stroke-width="1.5" stroke-linecap="round" stroke-linejoin="round"/>
<path d="M10.6995 18.3748L8.35547 16.0186" stroke="white" stroke-width="1.5" stroke-linecap="round" stroke-linejoin="round"/>
</svg>
